<svg width="520" height="112" xmlns="http://www.w3.org/2000/svg">
	<text x="12" y="16" stroke="#000000" stroke-opacity="1" stroke-width="1" fill="#000000" fill-opacity="1" rotation="0" >Quantum Register "q[2]"</text>
	<line x1="20" y1="52" x2="40" y2="52" stroke="#000000" stroke-width="1" stroke-opacity="1"/>
	<text x="0" y="52" stroke="#000000" stroke-opacity="1" stroke-width="1" fill="#000000" fill-opacity="1" rotation="0" >0</text>
	<line x1="20" y1="92" x2="40" y2="92" stroke="#000000" stroke-width="1" stroke-opacity="1"/>
	<text x="0" y="92" stroke="#000000" stroke-opacity="1" stroke-width="1" fill="#000000" fill-opacity="1" rotation="0" >1</text>
	<line x1="40" y1="52" x2="80" y2="52" stroke="#000000" stroke-width="1" stroke-opacity="1"/>
	<line x1="40" y1="92" x2="80" y2="92" stroke="#000000" stroke-width="1" stroke-opacity="1"/>
	<rect x="40" y="72" width="40" height="40" stroke="#000000" stroke-opacity="1" stroke-width="1" fill="#ffffff" fill-opacity="1" />
	<text x="50" y="92" stroke="#000000" stroke-opacity="1" stroke-width="1" fill="#000000" fill-opacity="1" rotation="0" >h</text>
	<line x1="80" y1="52" x2="120" y2="52" stroke="#000000" stroke-width="1" stroke-opacity="1"/>
	<line x1="80" y1="92" x2="120" y2="92" stroke="#000000" stroke-width="1" stroke-opacity="1"/>
	<line x1="120" y1="52" x2="160" y2="52" stroke="#000000" stroke-width="1" stroke-opacity="1"/>
	<line x1="120" y1="92" x2="160" y2="92" stroke="#000000" stroke-width="1" stroke-opacity="1"/>
	<rect x="120" y="72" width="40" height="40" stroke="#000000" stroke-opacity="1" stroke-width="1" fill="#ffffff" fill-opacity="1" />
	<text x="130" y="92" stroke="#000000" stroke-opacity="1" stroke-width="1" fill="#000000" fill-opacity="1" rotation="0" >z</text>
	<line x1="160" y1="52" x2="200" y2="52" stroke="#000000" stroke-width="1" stroke-opacity="1"/>
	<line x1="160" y1="92" x2="200" y2="92" stroke="#000000" stroke-width="1" stroke-opacity="1"/>
	<line x1="200" y1="52" x2="240" y2="52" stroke="#000000" stroke-width="1" stroke-opacity="1"/>
	<line x1="200" y1="92" x2="240" y2="92" stroke="#000000" stroke-width="1" stroke-opacity="1"/>
	<rect x="200" y="32" width="40" height="40" stroke="#000000" stroke-opacity="1" stroke-width="1" fill="#ffffff" fill-opacity="1" />
	<text x="210" y="52" stroke="#000000" stroke-opacity="1" stroke-width="1" fill="#000000" fill-opacity="1" rotation="0" >h</text>
	<line x1="240" y1="52" x2="280" y2="52" stroke="#000000" stroke-width="1" stroke-opacity="1"/>
	<line x1="240" y1="92" x2="280" y2="92" stroke="#000000" stroke-width="1" stroke-opacity="1"/>
	<line x1="280" y1="52" x2="320" y2="52" stroke="#000000" stroke-width="1" stroke-opacity="1"/>
	<line x1="280" y1="92" x2="320" y2="92" stroke="#000000" stroke-width="1" stroke-opacity="1"/>
	<rect x="280" y="72" width="40" height="40" stroke="#000000" stroke-opacity="1" stroke-width="1" fill="#ffffff" fill-opacity="1" />
	<text x="290" y="92" stroke="#000000" stroke-opacity="1" stroke-width="1" fill="#000000" fill-opacity="1" rotation="0" >x</text>
	<line x1="320" y1="52" x2="360" y2="52" stroke="#000000" stroke-width="1" stroke-opacity="1"/>
	<line x1="320" y1="92" x2="360" y2="92" stroke="#000000" stroke-width="1" stroke-opacity="1"/>
	<line x1="360" y1="52" x2="400" y2="52" stroke="#000000" stroke-width="1" stroke-opacity="1"/>
	<line x1="360" y1="92" x2="400" y2="92" stroke="#000000" stroke-width="1" stroke-opacity="1"/>
	<rect x="360" y="32" width="40" height="40" stroke="#000000" stroke-opacity="1" stroke-width="1" fill="#ffffff" fill-opacity="1" />
	<text x="370" y="52" stroke="#000000" stroke-opacity="1" stroke-width="1" fill="#000000" fill-opacity="1" rotation="0" >h</text>
	<line x1="400" y1="52" x2="440" y2="52" stroke="#000000" stroke-width="1" stroke-opacity="1"/>
	<line x1="400" y1="92" x2="440" y2="92" stroke="#000000" stroke-width="1" stroke-opacity="1"/>
	<polygon points="440 52, 480 39, 480 65" stroke="#000000" stroke-width="1" stroke-opacity="1"  fill="#ffffff" fill-opacity="1" />
	<line x1="440" y1="92" x2="480" y2="92" stroke="#000000" stroke-width="1" stroke-opacity="1"/>
	<line x1="480" y1="52" x2="520" y2="52" stroke="#000000" stroke-width="1" stroke-opacity="1"/>
	<line x1="480" y1="92" x2="520" y2="92" stroke="#000000" stroke-width="1" stroke-opacity="1"/>
</svg>