<svg width="200" height="112" xmlns="http://www.w3.org/2000/svg">
	<text x="12" y="16" stroke="#000000" stroke-opacity="1" stroke-width="1" fill="#000000" fill-opacity="1" rotation="0" >Quantum Register "q[2]"</text>
	<line x1="20" y1="52" x2="40" y2="52" stroke="#000000" stroke-width="1" stroke-opacity="1"/>
	<text x="0" y="52" stroke="#000000" stroke-opacity="1" stroke-width="1" fill="#000000" fill-opacity="1" rotation="0" >0</text>
	<line x1="20" y1="92" x2="40" y2="92" stroke="#000000" stroke-width="1" stroke-opacity="1"/>
	<text x="0" y="92" stroke="#000000" stroke-opacity="1" stroke-width="1" fill="#000000" fill-opacity="1" rotation="0" >1</text>
	<line x1="40" y1="52" x2="80" y2="52" stroke="#000000" stroke-width="1" stroke-opacity="1"/>
	<line x1="40" y1="92" x2="80" y2="92" stroke="#000000" stroke-width="1" stroke-opacity="1"/>
	<rect x="40" y="32" width="40" height="40" stroke="#000000" stroke-opacity="1" stroke-width="1" fill="#ffffff" fill-opacity="1" />
	<text x="50" y="52" stroke="#000000" stroke-opacity="1" stroke-width="1" fill="#000000" fill-opacity="1" rotation="0" >h</text>
	<line x1="80" y1="52" x2="120" y2="52" stroke="#000000" stroke-width="1" stroke-opacity="1"/>
	<line x1="80" y1="92" x2="120" y2="92" stroke="#000000" stroke-width="1" stroke-opacity="1"/>
	<line x1="120" y1="52" x2="160" y2="52" stroke="#000000" stroke-width="1" stroke-opacity="1"/>
	<line x1="120" y1="92" x2="160" y2="92" stroke="#000000" stroke-width="1" stroke-opacity="1"/>
	<rect x="132" y="44" width="16" height="16" stroke="#000000" stroke-opacity="1" stroke-width="1" fill="#000000" fill-opacity="1" />
	<line x1="140" y1="52" x2="140" y2="92" stroke="#000000" stroke-width="1" stroke-opacity="1"/>
	<rect x="120" y="72" width="40" height="40" stroke="#000000" stroke-opacity="1" stroke-width="1" fill="#ffffff" fill-opacity="1" />
	<text x="130" y="92" stroke="#000000" stroke-opacity="1" stroke-width="1" fill="#000000" fill-opacity="1" rotation="0" >cx</text>
	<line x1="160" y1="52" x2="200" y2="52" stroke="#000000" stroke-width="1" stroke-opacity="1"/>
	<line x1="160" y1="92" x2="200" y2="92" stroke="#000000" stroke-width="1" stroke-opacity="1"/>
</svg>